# Simple low-poly robot guard model placeholder, compatible with Unity/Blender
mtllib BlenderRobotGuard.mtl
o BlenderRobotGuard
v -0.4 0.0 -0.25
v 0.4 0.0 -0.25
v 0.4 1.1 -0.25
v -0.4 1.1 -0.25
v -0.4 0.0 0.25
v 0.4 0.0 0.25
v 0.4 1.1 0.25
v -0.4 1.1 0.25
v -0.32 1.1 -0.22
v 0.32 1.1 -0.22
v 0.32 1.55 -0.22
v -0.32 1.55 -0.22
v -0.32 1.1 0.22
v 0.32 1.1 0.22
v 0.32 1.55 0.22
v -0.32 1.55 0.22
usemtl blue
f 1 2 3 4
f 5 8 7 6
f 1 5 6 2
f 2 6 7 3
f 3 7 8 4
f 4 8 5 1
f 9 10 11 12
f 13 16 15 14
f 9 13 14 10
f 10 14 15 11
f 11 15 16 12
f 12 16 13 9
